<svg width="94" height="19" viewBox="0 0 94 19" fill="none" xmlns="http://www.w3.org/2000/svg">
<path d="M12.725 5.9498C12.725 6.88314 12.5 7.75814 12.05 8.5748C11.6167 9.39147 10.925 10.0498 9.975 10.5498C9.04167 11.0498 7.85833 11.2998 6.425 11.2998H3.5V17.9998H0V0.549804H6.425C7.775 0.549804 8.925 0.783138 9.875 1.2498C10.825 1.71647 11.5333 2.35814 12 3.1748C12.4833 3.99147 12.725 4.91647 12.725 5.9498ZM6.275 8.4748C7.24167 8.4748 7.95833 8.25814 8.425 7.8248C8.89167 7.3748 9.125 6.7498 9.125 5.9498C9.125 4.2498 8.175 3.3998 6.275 3.3998H3.5V8.4748H6.275Z" fill="#000339"/>
<path d="M24.06 18.1748C22.4266 18.1748 20.9266 17.7915 19.56 17.0248C18.1933 16.2581 17.11 15.1998 16.31 13.8498C15.51 12.4831 15.11 10.9415 15.11 9.2248C15.11 7.52481 15.51 5.9998 16.31 4.6498C17.11 3.28314 18.1933 2.21647 19.56 1.4498C20.9266 0.683138 22.4266 0.299805 24.06 0.299805C25.71 0.299805 27.21 0.683138 28.56 1.4498C29.9266 2.21647 31.0016 3.28314 31.785 4.6498C32.585 5.9998 32.985 7.52481 32.985 9.2248C32.985 10.9415 32.585 12.4831 31.785 13.8498C31.0016 15.1998 29.9266 16.2581 28.56 17.0248C27.1933 17.7915 25.6933 18.1748 24.06 18.1748ZM24.06 15.0498C25.11 15.0498 26.035 14.8165 26.835 14.3498C27.635 13.8665 28.26 13.1831 28.71 12.2998C29.16 11.4165 29.385 10.3915 29.385 9.2248C29.385 8.05814 29.16 7.04147 28.71 6.1748C28.26 5.29147 27.635 4.61647 26.835 4.1498C26.035 3.68314 25.11 3.4498 24.06 3.4498C23.01 3.4498 22.0766 3.68314 21.26 4.1498C20.46 4.61647 19.835 5.29147 19.385 6.1748C18.935 7.04147 18.71 8.05814 18.71 9.2248C18.71 10.3915 18.935 11.4165 19.385 12.2998C19.835 13.1831 20.46 13.8665 21.26 14.3498C22.0766 14.8165 23.01 15.0498 24.06 15.0498Z" fill="#000339"/>
<path d="M42.3639 18.1748C41.1472 18.1748 40.0472 17.9665 39.0639 17.5498C38.0972 17.1331 37.3305 16.5331 36.7639 15.7498C36.1972 14.9665 35.9055 14.0415 35.8889 12.9748H39.6389C39.6889 13.6915 39.9389 14.2581 40.3889 14.6748C40.8555 15.0915 41.4889 15.2998 42.2889 15.2998C43.1055 15.2998 43.7472 15.1081 44.2139 14.7248C44.6805 14.3248 44.9139 13.8081 44.9139 13.1748C44.9139 12.6581 44.7555 12.2331 44.4389 11.8998C44.1222 11.5665 43.7222 11.3081 43.2389 11.1248C42.7722 10.9248 42.1222 10.7081 41.2889 10.4748C40.1555 10.1415 39.2305 9.81647 38.5139 9.4998C37.8139 9.16647 37.2055 8.6748 36.6889 8.0248C36.1889 7.35814 35.9389 6.4748 35.9389 5.3748C35.9389 4.34147 36.1972 3.44147 36.7139 2.6748C37.2305 1.90814 37.9555 1.3248 38.8889 0.924804C39.8222 0.508138 40.8889 0.299805 42.0889 0.299805C43.8889 0.299805 45.3472 0.741471 46.4639 1.6248C47.5972 2.49147 48.2222 3.70814 48.3389 5.2748H44.4889C44.4555 4.6748 44.1972 4.18314 43.7139 3.7998C43.2472 3.3998 42.6222 3.1998 41.8389 3.1998C41.1555 3.1998 40.6055 3.3748 40.1889 3.7248C39.7889 4.0748 39.5889 4.58314 39.5889 5.2498C39.5889 5.71647 39.7389 6.10814 40.0389 6.4248C40.3555 6.7248 40.7389 6.9748 41.1889 7.1748C41.6555 7.35814 42.3055 7.5748 43.1389 7.8248C44.2722 8.15814 45.1972 8.49147 45.9139 8.8248C46.6305 9.15814 47.2472 9.65814 47.7639 10.3248C48.2805 10.9915 48.5389 11.8665 48.5389 12.9498C48.5389 13.8831 48.2972 14.7498 47.8139 15.5498C47.3305 16.3498 46.6222 16.9915 45.6889 17.4748C44.7555 17.9415 43.6472 18.1748 42.3639 18.1748Z" fill="#000339"/>
<path d="M60.4422 18L56.1942 12.42V18H53.1162V0H56.1942V10.908L60.4062 5.36403H64.0242L59.1282 11.556L64.2042 18H60.4422Z" fill="#6AC553"/>
<path d="M69.015 6.91203C68.475 6.91203 68.031 6.75603 67.683 6.44403C67.347 6.12003 67.179 5.72403 67.179 5.25603C67.179 4.77603 67.347 4.38003 67.683 4.06803C68.031 3.74403 68.475 3.58203 69.015 3.58203C69.543 3.58203 69.975 3.74403 70.311 4.06803C70.659 4.38003 70.833 4.77603 70.833 5.25603C70.833 5.72403 70.659 6.12003 70.311 6.44403C69.975 6.75603 69.543 6.91203 69.015 6.91203ZM70.545 7.95603V18H67.467V7.95603H70.545Z" fill="#6AC553"/>
<path d="M80.1736 15.39V18H78.6076C77.4916 18 76.6216 17.73 75.9976 17.19C75.3736 16.638 75.0616 15.744 75.0616 14.508V10.512H73.8376V7.95603H75.0616V5.50803H78.1396V7.95603H80.1556V10.512H78.1396V14.544C78.1396 14.844 78.2116 15.06 78.3556 15.192C78.4996 15.324 78.7396 15.39 79.0756 15.39H80.1736Z" fill="#6AC553"/>
<path d="M83.0761 12.96C83.0761 11.928 83.2681 11.022 83.6521 10.242C84.0481 9.46203 84.5821 8.86203 85.2541 8.44203C85.9261 8.02203 86.6761 7.81203 87.5041 7.81203C88.2121 7.81203 88.8301 7.95603 89.3581 8.24403C89.8981 8.53203 90.3121 8.91003 90.6001 9.37803V7.95603H93.6781V18H90.6001V16.578C90.3001 17.046 89.8801 17.424 89.3401 17.712C88.8121 18 88.1941 18.144 87.4861 18.144C86.6701 18.144 85.9261 17.934 85.2541 17.514C84.5821 17.082 84.0481 16.476 83.6521 15.696C83.2681 14.904 83.0761 13.992 83.0761 12.96ZM90.6001 12.978C90.6001 12.21 90.3841 11.604 89.9521 11.16C89.5321 10.716 89.0161 10.494 88.4041 10.494C87.7921 10.494 87.2701 10.716 86.8381 11.16C86.4181 11.592 86.2081 12.192 86.2081 12.96C86.2081 13.728 86.4181 14.34 86.8381 14.796C87.2701 15.24 87.7921 15.462 88.4041 15.462C89.0161 15.462 89.5321 15.24 89.9521 14.796C90.3841 14.352 90.6001 13.746 90.6001 12.978Z" fill="#6AC553"/>
</svg>
